<svg xmlns="http://www.w3.org/2000/svg" viewBox="0 0 301.73 323.52"><defs><style>.cls-1{fill:none;stroke:#231f20;stroke-miterlimit:10;}</style></defs><title>Fichier 2</title><g id="Calque_2" data-name="Calque 2"><g id="Calque_1-2" data-name="Calque 1"><path class="cls-1" d="M168.74.5c-58.27,2.32-114.86,32.18-149.66,79C11,90.3,4,102.25,1.44,115.49s0,28,9.11,37.9c10.84,11.77,28.26,14.53,44.25,14.72,60.08.75,120-26,159.43-71.33,8.16-9.36,15.44-23.92,7.15-33.17-6-6.71-16.6-5.94-25.44-4.18A270.8,270.8,0,0,0,57.31,134c-11.31,11.43-22.11,25.12-23,41.18-1.17,22.29,17.17,40.88,36.51,52,41,23.67,93.05,27.24,136.93,9.39s78.64-56.72,91.5-102.31c2.31-8.21,3.57-18.1-2.27-24.31-7.87-8.36-21.77-3.75-31.79,1.85a353.86,353.86,0,0,0-109.48,95.45c-14.46,19.16-27.5,42.75-21.84,66.08,5.12,21.11,24.6,36,45.06,43.3,37.93,13.51,82.79,5.24,113.4-20.9"/></g></g></svg>