<svg xmlns="http://www.w3.org/2000/svg" xmlns:xlink="http://www.w3.org/1999/xlink" viewBox="0 0 54.9 91.02"><defs><style>.cls-1,.cls-2{stroke:#231f20;stroke-miterlimit:10;}.cls-1{fill:url(#Dégradé_sans_nom_38);}.cls-2{fill:url(#Dégradé_sans_nom_38-2);}</style><linearGradient id="Dégradé_sans_nom_38" x1="-114.29" y1="28.79" x2="-30.12" y2="28.79" gradientTransform="translate(-1.34 -26.7) rotate(-90)" gradientUnits="userSpaceOnUse"><stop offset="0.18" stop-color="#515153"/><stop offset="0.36" stop-color="#4b4b4d"/><stop offset="0.52" stop-color="#58595b"/><stop offset="0.58" stop-color="#4f5052"/><stop offset="0.65" stop-color="#4a4a4c"/><stop offset="0.7" stop-color="#464648"/><stop offset="0.81" stop-color="#414042"/><stop offset="0.85" stop-color="#49494b"/><stop offset="0.93" stop-color="#545557"/><stop offset="1" stop-color="#58595b"/></linearGradient><linearGradient id="Dégradé_sans_nom_38-2" x1="-117.22" y1="28.79" x2="-27.2" y2="28.79" xlink:href="#Dégradé_sans_nom_38"/></defs><title>Fichier 10</title><g id="Calque_2" data-name="Calque 2"><g id="APP-SCREENSHOT"><path class="cls-1" d="M14.55,3.43h25.8c6.4,0,11.64,5,11.64,11V76.55c0,6.07-5.24,11-11.64,11H14.55c-6.4,0-11.64-5-11.64-11V14.47C2.91,8.4,8.15,3.43,14.55,3.43Z"/><image width="328" height="556" transform="translate(4.88 4.33) scale(0.14 0.15)" xlink:href="../app-screenshot-mobile.png"/><path class="cls-2" d="M.5,12.32V78.71c0,6.49,5.75,11.81,12.78,11.81H41.62c7,0,12.78-5.32,12.78-11.81V12.32C54.4,5.82,48.65.5,41.62.5H13.28C6.25.5.5,5.82.5,12.32Zm38.82-8A10.79,10.79,0,0,1,50,15.14V75.88A10.8,10.8,0,0,1,39.32,86.69H15.58A10.79,10.79,0,0,1,4.88,75.88V15.14A10.78,10.78,0,0,1,15.58,4.33Z"/></g></g></svg>