<svg xmlns="http://www.w3.org/2000/svg" xmlns:xlink="http://www.w3.org/1999/xlink" viewBox="0 0 413.33 288.67"><defs><style>.cls-1{stroke:#231f20;stroke-miterlimit:10;fill:url(#Dégradé_sans_nom_7);}</style><linearGradient id="Dégradé_sans_nom_7" x1="0.5" y1="144.34" x2="412.83" y2="144.34" gradientUnits="userSpaceOnUse"><stop offset="0" stop-color="#fff"/><stop offset="0.21" stop-color="#fcfcfc"/><stop offset="0.35" stop-color="#f4f4f4"/><stop offset="0.46" stop-color="#e5e5e5"/><stop offset="0.56" stop-color="#d0d0d0"/><stop offset="0.66" stop-color="#b5b5b5"/><stop offset="0.75" stop-color="#949494"/><stop offset="0.83" stop-color="#6c6c6c"/><stop offset="0.91" stop-color="#3e3e3e"/><stop offset="0.98" stop-color="#0c0c0c"/><stop offset="1"/></linearGradient></defs><title>Fichier 1</title><g id="Calque_2" data-name="Calque 2"><g id="Calque_1-2" data-name="Calque 1"><path class="cls-1" d="M350.83.5H62.5a62.18,62.18,0,0,0-62,62V226.17a62.18,62.18,0,0,0,62,62H350.83a62.18,62.18,0,0,0,62-62V62.5A62.18,62.18,0,0,0,350.83.5Zm46.25,214.68a62.18,62.18,0,0,1-62,62H78.25a62.18,62.18,0,0,1-62-62V73.49a62.18,62.18,0,0,1,62-62H335.08a62.18,62.18,0,0,1,62,62Z"/></g></g></svg>