<svg xmlns="http://www.w3.org/2000/svg" xmlns:xlink="http://www.w3.org/1999/xlink" viewBox="0 0 384.03 201.17"><defs><style>.cls-1{stroke:#231f20;stroke-miterlimit:10;fill:url(#Dégradé_sans_nom_7);}</style><linearGradient id="Dégradé_sans_nom_7" x1="0.5" y1="100.59" x2="383.53" y2="100.59" gradientUnits="userSpaceOnUse"><stop offset="0" stop-color="#fff"/><stop offset="0.21" stop-color="#fcfcfc"/><stop offset="0.35" stop-color="#f4f4f4"/><stop offset="0.46" stop-color="#e5e5e5"/><stop offset="0.56" stop-color="#d0d0d0"/><stop offset="0.66" stop-color="#b5b5b5"/><stop offset="0.75" stop-color="#949494"/><stop offset="0.83" stop-color="#6c6c6c"/><stop offset="0.91" stop-color="#3e3e3e"/><stop offset="0.98" stop-color="#0c0c0c"/><stop offset="1"/></linearGradient></defs><title>Fichier 4</title><g id="Calque_2" data-name="Calque 2"><g id="Calque_1-2" data-name="Calque 1"><image width="1276" height="618" transform="translate(22.29 8.15) scale(0.26 0.28)" xlink:href="../app-screenshot.png"/><path class="cls-1" d="M325.93.5H58.09C26.42.5.5,19.91.5,43.64V157.53c0,23.73,25.92,43.14,57.59,43.14H325.93c31.68,0,57.6-19.41,57.6-43.14V43.64C383.53,19.91,357.61.5,325.93.5Zm43,149.38C368.89,173.61,343,193,311.3,193H72.73c-31.68,0-57.6-19.42-57.6-43.15V51.29c0-23.73,25.92-43.14,57.6-43.14H311.3c31.68,0,57.59,19.41,57.59,43.14Z"/></g></g></svg>