<svg xmlns="http://www.w3.org/2000/svg" xmlns:xlink="http://www.w3.org/1999/xlink" viewBox="0 0 269.8 143.12"><defs><style>.cls-1{stroke:#231f20;stroke-miterlimit:10;fill:url(#Dégradé_sans_nom_38);}</style><linearGradient id="Dégradé_sans_nom_38" x1="0.5" y1="71.56" x2="269.3" y2="71.56" gradientUnits="userSpaceOnUse"><stop offset="0.18" stop-color="#515153"/><stop offset="0.36" stop-color="#4b4b4d"/><stop offset="0.52" stop-color="#58595b"/><stop offset="0.58" stop-color="#4f5052"/><stop offset="0.65" stop-color="#4a4a4c"/><stop offset="0.7" stop-color="#464648"/><stop offset="0.81" stop-color="#414042"/><stop offset="0.85" stop-color="#49494b"/><stop offset="0.93" stop-color="#545557"/><stop offset="1" stop-color="#58595b"/></linearGradient></defs><title>Fichier 7</title><g id="Calque_2" data-name="Calque 2"><g id="APP-SCREENSHOT"><image id="SCREENSHOT" width="1276" height="618" transform="translate(9.24 10.22) scale(0.2)" xlink:href="../app-screenshot.png"/><path id="CADRE" class="cls-1" d="M234,.5H35.78C16.38.5.5,15.66.5,34.2v74.73c0,18.53,15.88,33.69,35.28,33.69H234c19.4,0,35.28-15.16,35.28-33.69V34.2C269.3,15.66,253.42.5,234,.5Zm27.64,119.73c0,6.2-5.32,11.28-11.81,11.28H20c-6.49,0-11.81-5.08-11.81-11.28V21.06c0-6.2,5.32-11.28,11.81-11.28h229.9c6.49,0,11.81,5.08,11.81,11.28Z"/></g></g></svg>