<svg xmlns="http://www.w3.org/2000/svg" xmlns:xlink="http://www.w3.org/1999/xlink" viewBox="0 0 269.8 140.24"><defs><style>.cls-1,.cls-2{stroke:#231f20;stroke-miterlimit:10;}.cls-1{fill:url(#Dégradé_sans_nom_38);}.cls-2{fill:url(#Dégradé_sans_nom_38-2);}</style><linearGradient id="Dégradé_sans_nom_38" x1="9.24" y1="73.48" x2="260.57" y2="73.48" gradientUnits="userSpaceOnUse"><stop offset="0.18" stop-color="#515153"/><stop offset="0.36" stop-color="#4b4b4d"/><stop offset="0.52" stop-color="#58595b"/><stop offset="0.58" stop-color="#4f5052"/><stop offset="0.65" stop-color="#4a4a4c"/><stop offset="0.7" stop-color="#464648"/><stop offset="0.81" stop-color="#414042"/><stop offset="0.85" stop-color="#49494b"/><stop offset="0.93" stop-color="#545557"/><stop offset="1" stop-color="#58595b"/></linearGradient><linearGradient id="Dégradé_sans_nom_38-2" x1="0.5" y1="70.12" x2="269.3" y2="70.12" xlink:href="#Dégradé_sans_nom_38"/></defs><title>Fichier 8</title><g id="Calque_2" data-name="Calque 2"><g id="APP-SCREENSHOT"><path class="cls-1" d="M260.57,40.15V106.8c0,16.55-14.85,30.06-33,30.06H42.23c-18.14,0-33-13.51-33-30.06V40.15c0-16.54,14.85-30,33-30H227.58C245.72,10.1,260.57,23.61,260.57,40.15Z"/><image id="SCREENSHOT" width="1276" height="618" transform="translate(16.63 13.04) scale(0.18 0.19)" xlink:href="../app-screenshot.png"/><path class="cls-2" d="M234,.5H35.78C16.38.5.5,15.35.5,33.51v73.21c0,18.17,15.88,33,35.28,33H234c19.4,0,35.28-14.85,35.28-33V33.51C269.3,15.35,253.42.5,234,.5Zm23.85,100.28c0,15.21-14.53,27.65-32.28,27.65H44.22c-17.75,0-32.28-12.44-32.28-27.65V39.45c0-15.2,14.53-27.64,32.28-27.64H225.59c17.75,0,32.28,12.44,32.28,27.64Z"/></g></g></svg>