<svg xmlns="http://www.w3.org/2000/svg" xmlns:xlink="http://www.w3.org/1999/xlink" viewBox="0 0 709.05 610.67"><defs><style>.cls-1{fill:url(#linear-gradient);}.cls-2{fill:url(#linear-gradient-2);}.cls-3{fill:url(#linear-gradient-3);}.cls-4,.cls-5{fill:#fff;}.cls-5{opacity:0.2;}</style><linearGradient id="linear-gradient" x1="354.53" y1="602.12" x2="354.53" y2="610.67" gradientUnits="userSpaceOnUse"><stop offset="0" stop-color="#fff"/><stop offset="1" stop-color="#58595b"/></linearGradient><linearGradient id="linear-gradient-2" x1="354.53" y1="606.91" x2="354.53" y2="503.75" gradientUnits="userSpaceOnUse"><stop offset="0" stop-color="#7d7d7d"/><stop offset="0.14" stop-color="#757575"/><stop offset="0.28" stop-color="#9e9e9e"/><stop offset="0.44" stop-color="#a3a3a3"/><stop offset="0.69" stop-color="#e3e3e3"/><stop offset="1" stop-color="#6e6e6e"/></linearGradient><linearGradient id="linear-gradient-3" y1="481.63" x2="709.05" y2="481.63" gradientUnits="userSpaceOnUse"><stop offset="0" stop-color="#bfbfbf"/><stop offset="0.15" stop-color="#d0d0d0"/><stop offset="0.35" stop-color="#e0e0e0"/><stop offset="0.5" stop-color="#e6e6e6"/><stop offset="0.62" stop-color="#e1e1e1"/><stop offset="0.77" stop-color="#d2d2d2"/><stop offset="0.93" stop-color="#bababa"/><stop offset="1" stop-color="#adadad"/></linearGradient></defs><title>Fichier 1</title><g id="Calque_2" data-name="Calque 2"><g id="Layer_1" data-name="Layer 1"><path class="cls-1" d="M354.53,602.12H241.47s0,3.8,1.61,5.4c2.12,2.08,6.83,3,17.48,3,16.8,0,43.48.26,94,.17,50.48.09,77.16-.17,94-.17,10.66,0,15.36-.88,17.48-3,1.63-1.6,1.62-5.4,1.62-5.4Z"/><path class="cls-2" d="M466.72,599.19c-1-1.76-18.14-7.9-24.46-11.89-11.55-7.28-14.55-9.89-16.48-23.61-3.13-22.34-4-59.94-4-59.94H287.31s-.9,37.6-4,59.94c-1.92,13.72-4.93,16.33-16.47,23.61-6.33,4-23.45,10.13-24.47,11.89s-1.12,3.32-.42,4,1.82,3,14.13,3.4,84.3.23,98.49.23,86.17.18,98.48-.23,13.42-2.66,14.13-3.4S467.75,601,466.72,599.19Z"/><path d="M709.05,37.34A37.34,37.34,0,0,0,671.71,0H37.34A37.34,37.34,0,0,0,0,37.34v414.9H709.05Z"/><path class="cls-3" d="M0,452.24v21.45A37.34,37.34,0,0,0,37.34,511H671.71a37.34,37.34,0,0,0,37.34-37.34V452.24Z"/><rect class="cls-4" x="22.64" y="24.84" width="663.78" height="398.06"/><path class="cls-5" d="M379.53,0H37.34A37.34,37.34,0,0,0,0,37.34v414.9H314.12Z"/></g></g></svg>