<svg xmlns="http://www.w3.org/2000/svg" viewBox="0 0 1857 539"><defs><style>.cls-1{fill:none;}</style></defs><title>Fichier 103</title><g id="Calque_2" data-name="Calque 2"><g id="buttons"><rect id="b-1-1" class="cls-1" width="84" height="75" rx="14.82"/><rect id="b-3-2" class="cls-1" x="147" y="195" width="84" height="75" rx="14.82"/><rect id="b-3-3" class="cls-1" x="246" y="195" width="84" height="75" rx="14.82"/><rect id="b-4-2" class="cls-1" x="196" y="285" width="84" height="75" rx="14.82"/><rect id="b-5-2" class="cls-1" x="246" y="374" width="84" height="75" rx="14.82"/><rect id="b-5-3" class="cls-1" x="344" y="374" width="84" height="75" rx="14.82"/><rect id="b-5-4" class="cls-1" x="443" y="374" width="84" height="75" rx="14.82"/><rect id="b-5-5" class="cls-1" x="541" y="374" width="84" height="75" rx="14.82"/><rect id="b-5-6" class="cls-1" x="640" y="374" width="84" height="75" rx="14.82"/><rect id="b-5-7" class="cls-1" x="738" y="374" width="84" height="75" rx="14.82"/><rect id="b-5-8" class="cls-1" x="837" y="374" width="84" height="75" rx="14.82"/><rect id="b-5-9" class="cls-1" x="936" y="374" width="84" height="75" rx="14.82"/><rect id="b-5-10" class="cls-1" x="1034" y="374" width="84" height="75" rx="14.82"/><rect id="b-5-11" class="cls-1" x="1130" y="374" width="84" height="75" rx="14.82"/><rect id="b-4-3" class="cls-1" x="294" y="285" width="84" height="75" rx="14.82"/><rect id="b-4-4" class="cls-1" x="394" y="285" width="84" height="75" rx="14.82"/><rect id="b-4-5" class="cls-1" x="494" y="285" width="84" height="75" rx="14.82"/><rect id="b-4-6" class="cls-1" x="593" y="285" width="84" height="75" rx="14.82"/><rect id="b-4-7" class="cls-1" x="690" y="285" width="84" height="75" rx="14.82"/><rect id="b-4-8" class="cls-1" x="788" y="285" width="84" height="75" rx="14.82"/><rect id="b-4-9" class="cls-1" x="886" y="285" width="84" height="75" rx="14.82"/><rect id="b-4-10" class="cls-1" x="984" y="285" width="84" height="75" rx="14.82"/><rect id="b-4-11" class="cls-1" x="1084" y="285" width="84" height="75" rx="14.82"/><rect id="b-6-6" class="cls-1" x="1117" y="464" width="100" height="75" rx="14.82"/><rect id="b-6-5" class="cls-1" x="1001" y="464" width="100" height="75" rx="14.82"/><rect id="b-6-3" class="cls-1" x="261" y="464" width="100" height="75" rx="14.82"/><rect id="b-6-2" class="cls-1" x="147" y="464" width="100" height="75" rx="14.82"/><rect id="b-6-1" class="cls-1" y="464" width="134" height="75" rx="14.82"/><rect id="b-6-1-2" data-name="b-6-1" class="cls-1" y="374" width="231" height="75" rx="14.82"/><rect id="b-6-4" class="cls-1" x="378" y="464" width="607" height="75" rx="14.82"/><rect id="b-4-12" class="cls-1" x="1181" y="285" width="84" height="75" rx="14.82"/><rect id="b-6-9" class="cls-1" x="1576" y="464" width="183" height="75" rx="14.82"/><rect id="b-5-13" class="cls-1" x="1576" y="371" width="84" height="75" rx="14.82"/><rect id="b-5-15" class="cls-1" x="1773" y="371" width="84" height="75" rx="14.82"/><rect id="b-5-14" class="cls-1" x="1675" y="371" width="84" height="75" rx="14.82"/><rect id="b-4-14" class="cls-1" x="1576" y="281" width="84" height="75" rx="14.82"/><rect id="b-3-15" class="cls-1" x="1576" y="191" width="84" height="75" rx="14.82"/><rect id="b-3-16" class="cls-1" x="1675" y="192" width="84" height="75" rx="14.82"/><rect id="b-3-17" class="cls-1" x="1773" y="192" width="84" height="75" rx="14.82"/><rect id="b-4-16" class="cls-1" x="1773" y="281" width="84" height="75" rx="14.82"/><rect id="b-4-15" class="cls-1" x="1675" y="281" width="84" height="75" rx="14.82"/><rect id="b-6-10" class="cls-1" x="1773" y="464" width="84" height="75" rx="14.82"/><rect id="b-6-7" class="cls-1" x="1249" y="463" width="96" height="75" rx="14.82"/><rect id="b-3-4" class="cls-1" x="344" y="195" width="84" height="75" rx="14.82"/><rect id="b-3-5" class="cls-1" x="442" y="195" width="84" height="75" rx="14.82"/><rect id="b-3-6" class="cls-1" x="542" y="195" width="84" height="75" rx="14.82"/><rect id="b-3-7" class="cls-1" x="640" y="195" width="84" height="75" rx="14.82"/><rect id="b-3-8" class="cls-1" x="738" y="195" width="84" height="75" rx="14.82"/><rect id="b-3-9" class="cls-1" x="836" y="195" width="84" height="75" rx="14.82"/><rect id="b-3-10" class="cls-1" x="935" y="195" width="84" height="75" rx="14.82"/><rect id="b-3-11" class="cls-1" x="1033" y="195" width="84" height="75" rx="14.82"/><rect id="b-3-12" class="cls-1" x="1133" y="195" width="84" height="75" rx="14.82"/><rect id="b-3-13" class="cls-1" x="1230" y="195" width="84" height="75" rx="14.82"/><rect id="b-3-14" class="cls-1" x="1330" y="195" width="182" height="75" rx="14.82"/><rect id="b-6-8" class="cls-1" x="1363" y="463" width="164" height="75" rx="14.82"/><rect id="b-4-13" class="cls-1" x="1272" y="285" width="240" height="75" rx="14.82"/><rect id="b-5-12" class="cls-1" x="1230" y="374" width="297" height="75" rx="14.82"/><rect id="b-2-14" class="cls-1" x="1282" y="104" width="230" height="75" rx="14.82"/><rect id="b-3-1" class="cls-1" y="195" width="134" height="75" rx="14.82"/><rect id="b-4-1" class="cls-1" y="285" width="184" height="75" rx="14.82"/><rect id="b-2-2" class="cls-1" x="100" y="103" width="84" height="75" rx="14.82"/><rect id="b-2-3" class="cls-1" x="195" y="103" width="84" height="75" rx="14.82"/><rect id="b-2-1" class="cls-1" y="103" width="84" height="75" rx="14.82"/><rect id="b-2-4" class="cls-1" x="296" y="103" width="84" height="75" rx="14.82"/><rect id="b-2-5" class="cls-1" x="395" y="103" width="84" height="75" rx="14.82"/><rect id="b-2-6" class="cls-1" x="493" y="103" width="84" height="75" rx="14.82"/><rect id="b-2-7" class="cls-1" x="591" y="103" width="84" height="75" rx="14.82"/><rect id="b-2-8" class="cls-1" x="689" y="103" width="84" height="75" rx="14.82"/><rect id="b-2-9" class="cls-1" x="787" y="103" width="84" height="75" rx="14.82"/><rect id="b-2-10" class="cls-1" x="885" y="103" width="84" height="75" rx="14.82"/><rect id="b-2-11" class="cls-1" x="983" y="103" width="84" height="75" rx="14.82"/><rect id="b-2-12" class="cls-1" x="1081" y="103" width="84" height="75" rx="14.82"/><rect id="b-2-13" class="cls-1" x="1179" y="103" width="84" height="75" rx="14.82"/><rect id="b-1-2" class="cls-1" x="212" width="84" height="75" rx="14.82"/><rect id="b-1-3" class="cls-1" x="311" width="84" height="75" rx="14.82"/><rect id="b-1-4" class="cls-1" x="409" width="84" height="75" rx="14.82"/><rect id="b-1-5" class="cls-1" x="509" width="84" height="75" rx="14.82"/><rect id="b-1-6" class="cls-1" x="672" width="84" height="75" rx="14.82"/><rect id="b-1-7" class="cls-1" x="773" width="84" height="75" rx="14.82"/><rect id="b-1-8" class="cls-1" x="870" width="84" height="75" rx="14.82"/><rect id="b-1-9" class="cls-1" x="968" width="84" height="75" rx="14.82"/><rect id="b-1-10" class="cls-1" x="1133" width="84" height="75" rx="14.82"/><rect id="b-1-11" class="cls-1" x="1231" width="84" height="75" rx="14.82"/><rect id="b-1-12" class="cls-1" x="1330" width="84" height="75" rx="14.82"/><rect id="b-1-13" class="cls-1" x="1428" width="84" height="75" rx="14.82"/></g></g></svg>