<svg xmlns="http://www.w3.org/2000/svg" xmlns:xlink="http://www.w3.org/1999/xlink" viewBox="0 0 1857 627"><defs><style>.cls-1{fill:url(#Dégradé_sans_nom_22);}.cls-2{fill:url(#Dégradé_sans_nom_22-2);}.cls-3{fill:url(#Dégradé_sans_nom_22-3);}.cls-4{fill:url(#Dégradé_sans_nom_22-4);}.cls-5{fill:url(#Dégradé_sans_nom_22-5);}.cls-6{fill:url(#Dégradé_sans_nom_22-6);}.cls-7{fill:url(#Dégradé_sans_nom_22-7);}.cls-8{fill:url(#Dégradé_sans_nom_22-8);}.cls-9{fill:url(#Dégradé_sans_nom_22-9);}.cls-10{fill:url(#Dégradé_sans_nom_22-10);}.cls-11{fill:url(#Dégradé_sans_nom_22-11);}.cls-12{fill:url(#Dégradé_sans_nom_22-12);}.cls-13{fill:url(#Dégradé_sans_nom_22-13);}.cls-14{fill:url(#Dégradé_sans_nom_22-14);}.cls-15{fill:url(#Dégradé_sans_nom_22-15);}.cls-16{fill:url(#Dégradé_sans_nom_22-16);}.cls-17{fill:url(#Dégradé_sans_nom_22-17);}.cls-18{fill:url(#Dégradé_sans_nom_22-18);}.cls-19{fill:url(#Dégradé_sans_nom_22-19);}.cls-20{fill:url(#Dégradé_sans_nom_22-20);}.cls-21{fill:url(#Dégradé_sans_nom_22-21);}.cls-22{fill:url(#Dégradé_sans_nom_22-22);}.cls-23{fill:url(#Dégradé_sans_nom_22-23);}.cls-24{fill:url(#Dégradé_sans_nom_22-24);}.cls-25{fill:url(#Dégradé_sans_nom_22-25);}.cls-26{fill:url(#Dégradé_sans_nom_22-26);}.cls-27{fill:url(#Dégradé_sans_nom_22-27);}.cls-28{fill:url(#Dégradé_sans_nom_22-28);}.cls-29{fill:url(#Dégradé_sans_nom_22-29);}.cls-30{fill:url(#Dégradé_sans_nom_22-30);}.cls-31{fill:url(#Dégradé_sans_nom_22-31);}.cls-32{fill:url(#Dégradé_sans_nom_22-32);}.cls-33{fill:url(#Dégradé_sans_nom_22-33);}.cls-34{fill:url(#Dégradé_sans_nom_22-34);}.cls-35{fill:url(#Dégradé_sans_nom_22-35);}.cls-36{fill:url(#Dégradé_sans_nom_22-36);}.cls-37{fill:url(#Dégradé_sans_nom_22-37);}.cls-38{fill:url(#Dégradé_sans_nom_22-38);}.cls-39{fill:url(#Dégradé_sans_nom_22-39);}.cls-40{fill:url(#Dégradé_sans_nom_22-40);}.cls-41{fill:url(#Dégradé_sans_nom_22-41);}.cls-42{fill:url(#Dégradé_sans_nom_22-42);}.cls-43{fill:url(#Dégradé_sans_nom_22-43);}.cls-44{fill:url(#Dégradé_sans_nom_22-44);}.cls-45{fill:url(#Dégradé_sans_nom_22-45);}.cls-46{fill:url(#Dégradé_sans_nom_22-46);}.cls-47{fill:url(#Dégradé_sans_nom_22-47);}.cls-48{fill:url(#Dégradé_sans_nom_22-48);}.cls-49{fill:url(#Dégradé_sans_nom_22-49);}.cls-50{fill:url(#Dégradé_sans_nom_22-50);}.cls-51{fill:url(#Dégradé_sans_nom_22-51);}.cls-52{fill:url(#Dégradé_sans_nom_22-52);}.cls-53{fill:url(#Dégradé_sans_nom_22-53);}.cls-54{fill:url(#Dégradé_sans_nom_22-54);}.cls-55{fill:url(#Dégradé_sans_nom_22-55);}.cls-56{fill:url(#Dégradé_sans_nom_22-56);}.cls-57{fill:url(#Dégradé_sans_nom_22-57);}.cls-58{fill:url(#Dégradé_sans_nom_22-58);}.cls-59{fill:url(#Dégradé_sans_nom_22-59);}.cls-60{fill:url(#Dégradé_sans_nom_22-60);}.cls-61{fill:url(#Dégradé_sans_nom_22-61);}.cls-62{fill:url(#Dégradé_sans_nom_22-62);}.cls-63{fill:url(#Dégradé_sans_nom_22-63);}.cls-64{fill:url(#Dégradé_sans_nom_22-64);}.cls-65{fill:url(#Dégradé_sans_nom_22-65);}.cls-66{fill:url(#Dégradé_sans_nom_22-66);}.cls-67{fill:url(#Dégradé_sans_nom_22-67);}.cls-68{fill:url(#Dégradé_sans_nom_22-68);}.cls-69{fill:url(#Dégradé_sans_nom_22-69);}.cls-70{fill:url(#Dégradé_sans_nom_22-70);}.cls-71{fill:url(#Dégradé_sans_nom_22-71);}.cls-72{fill:url(#Dégradé_sans_nom_22-72);}.cls-73{fill:url(#Dégradé_sans_nom_22-73);}.cls-74{fill:url(#Dégradé_sans_nom_22-74);}.cls-75{fill:url(#Dégradé_sans_nom_22-75);}.cls-76{fill:url(#Dégradé_sans_nom_22-76);}.cls-77{fill:url(#Dégradé_sans_nom_22-77);}.cls-78{fill:url(#Dégradé_sans_nom_22-78);}.cls-79{fill:url(#Dégradé_sans_nom_22-79);}.cls-80{fill:url(#Dégradé_sans_nom_22-80);}.cls-81{fill:url(#Dégradé_sans_nom_22-81);}.cls-82{fill:url(#Dégradé_sans_nom_22-82);}.cls-83{fill:url(#Dégradé_sans_nom_22-83);}.cls-84{fill:url(#Dégradé_sans_nom_22-84);}.cls-85{fill:url(#Dégradé_sans_nom_22-85);}.cls-86{fill:url(#Dégradé_sans_nom_22-86);}.cls-87{fill:url(#Dégradé_sans_nom_22-87);}.cls-88{fill:url(#Dégradé_sans_nom_22-88);}.cls-89{fill:url(#Dégradé_sans_nom_22-89);}.cls-90{fill:url(#Dégradé_sans_nom_22-90);}.cls-91{fill:url(#Dégradé_sans_nom_22-91);}.cls-92{fill:url(#Dégradé_sans_nom_22-92);}.cls-93{fill:url(#Dégradé_sans_nom_22-93);}.cls-94{fill:url(#Dégradé_sans_nom_22-94);}.cls-95{fill:url(#Dégradé_sans_nom_22-95);}.cls-96{fill:url(#Dégradé_sans_nom_22-96);}.cls-97{fill:url(#Dégradé_sans_nom_22-97);}</style><linearGradient id="Dégradé_sans_nom_22" x1="6.59" y1="72.91" x2="77.41" y2="2.09" gradientUnits="userSpaceOnUse"><stop offset="0" stop-color="#e6e6e6"/><stop offset="0.28" stop-color="#ddd"/><stop offset="0.73" stop-color="#c5c5c5"/><stop offset="1" stop-color="#b3b3b3"/></linearGradient><linearGradient id="Dégradé_sans_nom_22-2" x1="21.59" y1="265.91" x2="92.41" y2="195.09" xlink:href="#Dégradé_sans_nom_22"/><linearGradient id="Dégradé_sans_nom_22-3" x1="119.59" y1="265.91" x2="190.41" y2="195.09" xlink:href="#Dégradé_sans_nom_22"/><linearGradient id="Dégradé_sans_nom_22-4" x1="153.59" y1="355.91" x2="224.41" y2="285.09" xlink:href="#Dégradé_sans_nom_22"/><linearGradient id="Dégradé_sans_nom_22-5" x1="252.59" y1="355.91" x2="323.41" y2="285.09" xlink:href="#Dégradé_sans_nom_22"/><linearGradient id="Dégradé_sans_nom_22-6" x1="202.59" y1="445.91" x2="273.41" y2="375.09" xlink:href="#Dégradé_sans_nom_22"/><linearGradient id="Dégradé_sans_nom_22-7" x1="252.59" y1="534.91" x2="323.41" y2="464.09" xlink:href="#Dégradé_sans_nom_22"/><linearGradient id="Dégradé_sans_nom_22-8" x1="350.59" y1="534.91" x2="421.41" y2="464.09" xlink:href="#Dégradé_sans_nom_22"/><linearGradient id="Dégradé_sans_nom_22-9" x1="449.59" y1="534.91" x2="520.41" y2="464.09" xlink:href="#Dégradé_sans_nom_22"/><linearGradient id="Dégradé_sans_nom_22-10" x1="547.59" y1="534.91" x2="618.41" y2="464.09" xlink:href="#Dégradé_sans_nom_22"/><linearGradient id="Dégradé_sans_nom_22-11" x1="646.59" y1="534.91" x2="717.41" y2="464.09" xlink:href="#Dégradé_sans_nom_22"/><linearGradient id="Dégradé_sans_nom_22-12" x1="744.59" y1="534.91" x2="815.41" y2="464.09" xlink:href="#Dégradé_sans_nom_22"/><linearGradient id="Dégradé_sans_nom_22-13" x1="843.59" y1="534.91" x2="914.41" y2="464.09" xlink:href="#Dégradé_sans_nom_22"/><linearGradient id="Dégradé_sans_nom_22-14" x1="942.59" y1="534.91" x2="1013.41" y2="464.09" xlink:href="#Dégradé_sans_nom_22"/><linearGradient id="Dégradé_sans_nom_22-15" x1="1040.59" y1="534.91" x2="1111.41" y2="464.09" xlink:href="#Dégradé_sans_nom_22"/><linearGradient id="Dégradé_sans_nom_22-16" x1="1136.59" y1="534.91" x2="1207.41" y2="464.09" xlink:href="#Dégradé_sans_nom_22"/><linearGradient id="Dégradé_sans_nom_22-17" x1="300.59" y1="445.91" x2="371.41" y2="375.09" xlink:href="#Dégradé_sans_nom_22"/><linearGradient id="Dégradé_sans_nom_22-18" x1="400.59" y1="445.91" x2="471.41" y2="375.09" xlink:href="#Dégradé_sans_nom_22"/><linearGradient id="Dégradé_sans_nom_22-19" x1="500.59" y1="445.91" x2="571.41" y2="375.09" xlink:href="#Dégradé_sans_nom_22"/><linearGradient id="Dégradé_sans_nom_22-20" x1="599.59" y1="445.91" x2="670.41" y2="375.09" xlink:href="#Dégradé_sans_nom_22"/><linearGradient id="Dégradé_sans_nom_22-21" x1="696.59" y1="445.91" x2="767.41" y2="375.09" xlink:href="#Dégradé_sans_nom_22"/><linearGradient id="Dégradé_sans_nom_22-22" x1="794.59" y1="445.91" x2="865.41" y2="375.09" xlink:href="#Dégradé_sans_nom_22"/><linearGradient id="Dégradé_sans_nom_22-23" x1="892.59" y1="445.91" x2="963.41" y2="375.09" xlink:href="#Dégradé_sans_nom_22"/><linearGradient id="Dégradé_sans_nom_22-24" x1="990.59" y1="445.91" x2="1061.41" y2="375.09" xlink:href="#Dégradé_sans_nom_22"/><linearGradient id="Dégradé_sans_nom_22-25" x1="1090.59" y1="445.91" x2="1161.41" y2="375.09" xlink:href="#Dégradé_sans_nom_22"/><linearGradient id="Dégradé_sans_nom_22-26" x1="1127.59" y1="628.91" x2="1206.41" y2="550.09" xlink:href="#Dégradé_sans_nom_22"/><linearGradient id="Dégradé_sans_nom_22-27" x1="1011.59" y1="628.91" x2="1090.41" y2="550.09" xlink:href="#Dégradé_sans_nom_22"/><linearGradient id="Dégradé_sans_nom_22-28" x1="271.59" y1="628.91" x2="350.41" y2="550.09" xlink:href="#Dégradé_sans_nom_22"/><linearGradient id="Dégradé_sans_nom_22-29" x1="157.59" y1="628.91" x2="236.41" y2="550.09" xlink:href="#Dégradé_sans_nom_22"/><linearGradient id="Dégradé_sans_nom_22-30" x1="19.09" y1="637.41" x2="114.91" y2="541.59" xlink:href="#Dégradé_sans_nom_22"/><linearGradient id="Dégradé_sans_nom_22-31" x1="43.34" y1="571.66" x2="187.66" y2="427.34" xlink:href="#Dégradé_sans_nom_22"/><linearGradient id="Dégradé_sans_nom_22-32" x1="515.34" y1="755.66" x2="847.66" y2="423.34" xlink:href="#Dégradé_sans_nom_22"/><linearGradient id="Dégradé_sans_nom_22-33" x1="1187.59" y1="445.91" x2="1258.41" y2="375.09" xlink:href="#Dégradé_sans_nom_22"/><linearGradient id="Dégradé_sans_nom_22-34" x1="1582.59" y1="624.91" x2="1653.41" y2="554.09" xlink:href="#Dégradé_sans_nom_22"/><linearGradient id="Dégradé_sans_nom_22-35" x1="1681.59" y1="624.91" x2="1752.41" y2="554.09" xlink:href="#Dégradé_sans_nom_22"/><linearGradient id="Dégradé_sans_nom_22-36" x1="1681.59" y1="535.91" x2="1752.41" y2="465.09" xlink:href="#Dégradé_sans_nom_22"/><linearGradient id="Dégradé_sans_nom_22-37" x1="1582.59" y1="265.91" x2="1653.41" y2="195.09" xlink:href="#Dégradé_sans_nom_22"/><linearGradient id="Dégradé_sans_nom_22-38" x1="1582.59" y1="175.91" x2="1653.41" y2="105.09" xlink:href="#Dégradé_sans_nom_22"/><linearGradient id="Dégradé_sans_nom_22-39" x1="1681.59" y1="176.91" x2="1752.41" y2="106.09" xlink:href="#Dégradé_sans_nom_22"/><linearGradient id="Dégradé_sans_nom_22-40" x1="1779.59" y1="176.91" x2="1850.41" y2="106.09" xlink:href="#Dégradé_sans_nom_22"/><linearGradient id="Dégradé_sans_nom_22-41" x1="1779.59" y1="265.91" x2="1850.41" y2="195.09" xlink:href="#Dégradé_sans_nom_22"/><linearGradient id="Dégradé_sans_nom_22-42" x1="1681.59" y1="265.91" x2="1752.41" y2="195.09" xlink:href="#Dégradé_sans_nom_22"/><linearGradient id="Dégradé_sans_nom_22-43" x1="1779.59" y1="624.91" x2="1850.41" y2="554.09" xlink:href="#Dégradé_sans_nom_22"/><linearGradient id="Dégradé_sans_nom_22-44" x1="1258.59" y1="626.91" x2="1335.41" y2="550.09" xlink:href="#Dégradé_sans_nom_22"/><linearGradient id="Dégradé_sans_nom_22-45" x1="350.59" y1="355.91" x2="421.41" y2="285.09" xlink:href="#Dégradé_sans_nom_22"/><linearGradient id="Dégradé_sans_nom_22-46" x1="448.59" y1="355.91" x2="519.41" y2="285.09" xlink:href="#Dégradé_sans_nom_22"/><linearGradient id="Dégradé_sans_nom_22-47" x1="548.59" y1="355.91" x2="619.41" y2="285.09" xlink:href="#Dégradé_sans_nom_22"/><linearGradient id="Dégradé_sans_nom_22-48" x1="646.59" y1="355.91" x2="717.41" y2="285.09" xlink:href="#Dégradé_sans_nom_22"/><linearGradient id="Dégradé_sans_nom_22-49" x1="744.59" y1="355.91" x2="815.41" y2="285.09" xlink:href="#Dégradé_sans_nom_22"/><linearGradient id="Dégradé_sans_nom_22-50" x1="842.59" y1="355.91" x2="913.41" y2="285.09" xlink:href="#Dégradé_sans_nom_22"/><linearGradient id="Dégradé_sans_nom_22-51" x1="941.59" y1="355.91" x2="1012.41" y2="285.09" xlink:href="#Dégradé_sans_nom_22"/><linearGradient id="Dégradé_sans_nom_22-52" x1="1039.59" y1="355.91" x2="1110.41" y2="285.09" xlink:href="#Dégradé_sans_nom_22"/><linearGradient id="Dégradé_sans_nom_22-53" x1="1139.59" y1="355.91" x2="1210.41" y2="285.09" xlink:href="#Dégradé_sans_nom_22"/><linearGradient id="Dégradé_sans_nom_22-54" x1="1236.59" y1="355.91" x2="1307.41" y2="285.09" xlink:href="#Dégradé_sans_nom_22"/><linearGradient id="Dégradé_sans_nom_22-55" x1="1361.09" y1="380.41" x2="1480.91" y2="260.59" xlink:href="#Dégradé_sans_nom_22"/><linearGradient id="Dégradé_sans_nom_22-56" x1="1389.59" y1="643.91" x2="1500.41" y2="533.09" xlink:href="#Dégradé_sans_nom_22"/><linearGradient id="Dégradé_sans_nom_22-57" x1="1317.59" y1="484.91" x2="1466.41" y2="336.09" xlink:href="#Dégradé_sans_nom_22"/><linearGradient id="Dégradé_sans_nom_22-58" x1="1289.84" y1="588.16" x2="1467.16" y2="410.84" xlink:href="#Dégradé_sans_nom_22"/><linearGradient id="Dégradé_sans_nom_22-59" x1="1325.09" y1="213.41" x2="1468.91" y2="69.59" xlink:href="#Dégradé_sans_nom_22"/><linearGradient id="Dégradé_sans_nom_22-60" x1="19.09" y1="368.41" x2="114.91" y2="272.59" xlink:href="#Dégradé_sans_nom_22"/><linearGradient id="Dégradé_sans_nom_22-61" x1="31.59" y1="470.91" x2="152.41" y2="350.09" xlink:href="#Dégradé_sans_nom_22"/><linearGradient id="Dégradé_sans_nom_22-62" x1="218.59" y1="265.91" x2="289.41" y2="195.09" xlink:href="#Dégradé_sans_nom_22"/><linearGradient id="Dégradé_sans_nom_22-63" x1="317.59" y1="265.91" x2="388.41" y2="195.09" xlink:href="#Dégradé_sans_nom_22"/><linearGradient id="Dégradé_sans_nom_22-64" x1="416.59" y1="265.91" x2="487.41" y2="195.09" xlink:href="#Dégradé_sans_nom_22"/><linearGradient id="Dégradé_sans_nom_22-65" x1="515.59" y1="265.91" x2="586.41" y2="195.09" xlink:href="#Dégradé_sans_nom_22"/><linearGradient id="Dégradé_sans_nom_22-66" x1="614.59" y1="265.91" x2="685.41" y2="195.09" xlink:href="#Dégradé_sans_nom_22"/><linearGradient id="Dégradé_sans_nom_22-67" x1="713.59" y1="265.91" x2="784.41" y2="195.09" xlink:href="#Dégradé_sans_nom_22"/><linearGradient id="Dégradé_sans_nom_22-68" x1="812.59" y1="265.91" x2="883.41" y2="195.09" xlink:href="#Dégradé_sans_nom_22"/><linearGradient id="Dégradé_sans_nom_22-69" x1="911.59" y1="265.91" x2="982.41" y2="195.09" xlink:href="#Dégradé_sans_nom_22"/><linearGradient id="Dégradé_sans_nom_22-70" x1="1010.59" y1="265.91" x2="1081.41" y2="195.09" xlink:href="#Dégradé_sans_nom_22"/><linearGradient id="Dégradé_sans_nom_22-71" x1="1109.59" y1="265.91" x2="1180.41" y2="195.09" xlink:href="#Dégradé_sans_nom_22"/><linearGradient id="Dégradé_sans_nom_22-72" x1="1208.59" y1="265.91" x2="1279.41" y2="195.09" xlink:href="#Dégradé_sans_nom_22"/><linearGradient id="Dégradé_sans_nom_22-73" x1="106.59" y1="175.91" x2="177.41" y2="105.09" xlink:href="#Dégradé_sans_nom_22"/><linearGradient id="Dégradé_sans_nom_22-74" x1="201.59" y1="175.91" x2="272.41" y2="105.09" xlink:href="#Dégradé_sans_nom_22"/><linearGradient id="Dégradé_sans_nom_22-75" x1="6.59" y1="175.91" x2="77.41" y2="105.09" xlink:href="#Dégradé_sans_nom_22"/><linearGradient id="Dégradé_sans_nom_22-76" x1="302.59" y1="175.91" x2="373.41" y2="105.09" xlink:href="#Dégradé_sans_nom_22"/><linearGradient id="Dégradé_sans_nom_22-77" x1="401.59" y1="175.91" x2="472.41" y2="105.09" xlink:href="#Dégradé_sans_nom_22"/><linearGradient id="Dégradé_sans_nom_22-78" x1="499.59" y1="175.91" x2="570.41" y2="105.09" xlink:href="#Dégradé_sans_nom_22"/><linearGradient id="Dégradé_sans_nom_22-79" x1="597.59" y1="175.91" x2="668.41" y2="105.09" xlink:href="#Dégradé_sans_nom_22"/><linearGradient id="Dégradé_sans_nom_22-80" x1="695.59" y1="175.91" x2="766.41" y2="105.09" xlink:href="#Dégradé_sans_nom_22"/><linearGradient id="Dégradé_sans_nom_22-81" x1="793.59" y1="175.91" x2="864.41" y2="105.09" xlink:href="#Dégradé_sans_nom_22"/><linearGradient id="Dégradé_sans_nom_22-82" x1="891.59" y1="175.91" x2="962.41" y2="105.09" xlink:href="#Dégradé_sans_nom_22"/><linearGradient id="Dégradé_sans_nom_22-83" x1="989.59" y1="175.91" x2="1060.41" y2="105.09" xlink:href="#Dégradé_sans_nom_22"/><linearGradient id="Dégradé_sans_nom_22-84" x1="1087.59" y1="175.91" x2="1158.41" y2="105.09" xlink:href="#Dégradé_sans_nom_22"/><linearGradient id="Dégradé_sans_nom_22-85" x1="1185.59" y1="175.91" x2="1256.41" y2="105.09" xlink:href="#Dégradé_sans_nom_22"/><linearGradient id="Dégradé_sans_nom_22-86" x1="218.59" y1="72.91" x2="289.41" y2="2.09" xlink:href="#Dégradé_sans_nom_22"/><linearGradient id="Dégradé_sans_nom_22-87" x1="317.59" y1="72.91" x2="388.41" y2="2.09" xlink:href="#Dégradé_sans_nom_22"/><linearGradient id="Dégradé_sans_nom_22-88" x1="415.59" y1="72.91" x2="486.41" y2="2.09" xlink:href="#Dégradé_sans_nom_22"/><linearGradient id="Dégradé_sans_nom_22-89" x1="515.59" y1="72.91" x2="586.41" y2="2.09" xlink:href="#Dégradé_sans_nom_22"/><linearGradient id="Dégradé_sans_nom_22-90" x1="678.59" y1="72.91" x2="749.41" y2="2.09" xlink:href="#Dégradé_sans_nom_22"/><linearGradient id="Dégradé_sans_nom_22-91" x1="779.59" y1="72.91" x2="850.41" y2="2.09" xlink:href="#Dégradé_sans_nom_22"/><linearGradient id="Dégradé_sans_nom_22-92" x1="876.59" y1="72.91" x2="947.41" y2="2.09" xlink:href="#Dégradé_sans_nom_22"/><linearGradient id="Dégradé_sans_nom_22-93" x1="974.59" y1="72.91" x2="1045.41" y2="2.09" xlink:href="#Dégradé_sans_nom_22"/><linearGradient id="Dégradé_sans_nom_22-94" x1="1139.59" y1="72.91" x2="1210.41" y2="2.09" xlink:href="#Dégradé_sans_nom_22"/><linearGradient id="Dégradé_sans_nom_22-95" x1="1237.59" y1="72.91" x2="1308.41" y2="2.09" xlink:href="#Dégradé_sans_nom_22"/><linearGradient id="Dégradé_sans_nom_22-96" x1="1336.59" y1="72.91" x2="1407.41" y2="2.09" xlink:href="#Dégradé_sans_nom_22"/><linearGradient id="Dégradé_sans_nom_22-97" x1="1434.59" y1="72.91" x2="1505.41" y2="2.09" xlink:href="#Dégradé_sans_nom_22"/></defs><title>Fichier 3</title><g id="Calque_2" data-name="Calque 2"><g id="buttons"><rect class="cls-1" width="84" height="75" rx="14.82"/><rect class="cls-2" x="15" y="193" width="84" height="75" rx="14.82"/><rect class="cls-3" x="113" y="193" width="84" height="75" rx="14.82"/><rect class="cls-4" x="147" y="283" width="84" height="75" rx="14.82"/><rect class="cls-5" x="246" y="283" width="84" height="75" rx="14.82"/><rect class="cls-6" x="196" y="373" width="84" height="75" rx="14.82"/><rect class="cls-7" x="246" y="462" width="84" height="75" rx="14.82"/><rect class="cls-8" x="344" y="462" width="84" height="75" rx="14.82"/><rect class="cls-9" x="443" y="462" width="84" height="75" rx="14.82"/><rect class="cls-10" x="541" y="462" width="84" height="75" rx="14.82"/><rect class="cls-11" x="640" y="462" width="84" height="75" rx="14.82"/><rect class="cls-12" x="738" y="462" width="84" height="75" rx="14.82"/><rect class="cls-13" x="837" y="462" width="84" height="75" rx="14.82"/><rect class="cls-14" x="936" y="462" width="84" height="75" rx="14.82"/><rect class="cls-15" x="1034" y="462" width="84" height="75" rx="14.82"/><rect class="cls-16" x="1130" y="462" width="84" height="75" rx="14.82"/><rect class="cls-17" x="294" y="373" width="84" height="75" rx="14.82"/><rect class="cls-18" x="394" y="373" width="84" height="75" rx="14.82"/><rect class="cls-19" x="494" y="373" width="84" height="75" rx="14.82"/><rect class="cls-20" x="593" y="373" width="84" height="75" rx="14.82"/><rect class="cls-21" x="690" y="373" width="84" height="75" rx="14.82"/><rect class="cls-22" x="788" y="373" width="84" height="75" rx="14.82"/><rect class="cls-23" x="886" y="373" width="84" height="75" rx="14.82"/><rect class="cls-24" x="984" y="373" width="84" height="75" rx="14.82"/><rect class="cls-25" x="1084" y="373" width="84" height="75" rx="14.82"/><rect class="cls-26" x="1117" y="552" width="100" height="75" rx="14.82"/><rect class="cls-27" x="1001" y="552" width="100" height="75" rx="14.82"/><rect class="cls-28" x="261" y="552" width="100" height="75" rx="14.82"/><rect class="cls-29" x="147" y="552" width="100" height="75" rx="14.82"/><rect class="cls-30" y="552" width="134" height="75" rx="14.82"/><rect class="cls-31" y="462" width="231" height="75" rx="14.82"/><rect class="cls-32" x="378" y="552" width="607" height="75" rx="14.82"/><rect class="cls-33" x="1181" y="373" width="84" height="75" rx="14.82"/><rect class="cls-34" x="1576" y="552" width="84" height="75" rx="14.82"/><rect class="cls-35" x="1675" y="552" width="84" height="75" rx="14.82"/><rect class="cls-36" x="1675" y="463" width="84" height="75" rx="14.82"/><rect class="cls-37" x="1576" y="193" width="84" height="75" rx="14.82"/><rect class="cls-38" x="1576" y="103" width="84" height="75" rx="14.82"/><rect class="cls-39" x="1675" y="104" width="84" height="75" rx="14.82"/><rect class="cls-40" x="1773" y="104" width="84" height="75" rx="14.82"/><rect class="cls-41" x="1773" y="193" width="84" height="75" rx="14.82"/><rect class="cls-42" x="1675" y="193" width="84" height="75" rx="14.82"/><rect class="cls-43" x="1773" y="552" width="84" height="75" rx="14.82"/><rect class="cls-44" x="1249" y="551" width="96" height="75" rx="14.82"/><rect class="cls-45" x="344" y="283" width="84" height="75" rx="14.82"/><rect class="cls-46" x="442" y="283" width="84" height="75" rx="14.82"/><rect class="cls-47" x="542" y="283" width="84" height="75" rx="14.82"/><rect class="cls-48" x="640" y="283" width="84" height="75" rx="14.82"/><rect class="cls-49" x="738" y="283" width="84" height="75" rx="14.82"/><rect class="cls-50" x="836" y="283" width="84" height="75" rx="14.82"/><rect class="cls-51" x="935" y="283" width="84" height="75" rx="14.82"/><rect class="cls-52" x="1033" y="283" width="84" height="75" rx="14.82"/><rect class="cls-53" x="1133" y="283" width="84" height="75" rx="14.82"/><rect class="cls-54" x="1230" y="283" width="84" height="75" rx="14.82"/><rect class="cls-55" x="1330" y="283" width="182" height="75" rx="14.82"/><rect class="cls-56" x="1363" y="551" width="164" height="75" rx="14.82"/><rect class="cls-57" x="1272" y="373" width="240" height="75" rx="14.82"/><rect class="cls-58" x="1230" y="462" width="297" height="75" rx="14.82"/><rect class="cls-59" x="1282" y="104" width="230" height="75" rx="14.82"/><rect class="cls-60" y="283" width="134" height="75" rx="14.82"/><rect class="cls-61" y="373" width="184" height="75" rx="14.82"/><rect class="cls-62" x="212" y="193" width="84" height="75" rx="14.82"/><rect class="cls-63" x="311" y="193" width="84" height="75" rx="14.82"/><rect class="cls-64" x="410" y="193" width="84" height="75" rx="14.82"/><rect class="cls-65" x="509" y="193" width="84" height="75" rx="14.82"/><rect class="cls-66" x="608" y="193" width="84" height="75" rx="14.82"/><rect class="cls-67" x="707" y="193" width="84" height="75" rx="14.82"/><rect class="cls-68" x="806" y="193" width="84" height="75" rx="14.82"/><rect class="cls-69" x="905" y="193" width="84" height="75" rx="14.82"/><rect class="cls-70" x="1004" y="193" width="84" height="75" rx="14.82"/><rect class="cls-71" x="1103" y="193" width="84" height="75" rx="14.82"/><rect class="cls-72" x="1202" y="193" width="84" height="75" rx="14.82"/><rect class="cls-73" x="100" y="103" width="84" height="75" rx="14.82"/><rect class="cls-74" x="195" y="103" width="84" height="75" rx="14.82"/><rect class="cls-75" y="103" width="84" height="75" rx="14.82"/><rect class="cls-76" x="296" y="103" width="84" height="75" rx="14.82"/><rect class="cls-77" x="395" y="103" width="84" height="75" rx="14.82"/><rect class="cls-78" x="493" y="103" width="84" height="75" rx="14.82"/><rect class="cls-79" x="591" y="103" width="84" height="75" rx="14.82"/><rect class="cls-80" x="689" y="103" width="84" height="75" rx="14.82"/><rect class="cls-81" x="787" y="103" width="84" height="75" rx="14.82"/><rect class="cls-82" x="885" y="103" width="84" height="75" rx="14.82"/><rect class="cls-83" x="983" y="103" width="84" height="75" rx="14.82"/><rect class="cls-84" x="1081" y="103" width="84" height="75" rx="14.82"/><rect class="cls-85" x="1179" y="103" width="84" height="75" rx="14.82"/><rect class="cls-86" x="212" width="84" height="75" rx="14.82"/><rect class="cls-87" x="311" width="84" height="75" rx="14.82"/><rect class="cls-88" x="409" width="84" height="75" rx="14.82"/><rect class="cls-89" x="509" width="84" height="75" rx="14.82"/><rect class="cls-90" x="672" width="84" height="75" rx="14.82"/><rect class="cls-91" x="773" width="84" height="75" rx="14.82"/><rect class="cls-92" x="870" width="84" height="75" rx="14.82"/><rect class="cls-93" x="968" width="84" height="75" rx="14.82"/><rect class="cls-94" x="1133" width="84" height="75" rx="14.82"/><rect class="cls-95" x="1231" width="84" height="75" rx="14.82"/><rect class="cls-96" x="1330" width="84" height="75" rx="14.82"/><rect class="cls-97" x="1428" width="84" height="75" rx="14.82"/></g></g></svg>